<svg width="176" height="123" fill="none" xmlns="http://www.w3.org/2000/svg"><path d="m105.84 46.205 23.293 29.538h-83.52l62.602-9.08-2.375-20.458z" fill="#fff"/><path d="M76.11 36.474 90.043 1.532l41.76 72.33-39.165-49.674-16.53 12.286z" fill="#fff"/><path d="M82.228 66.927 45 72.33 86.76 0 63.322 58.755l18.906 8.172zM.36 98.336H6.6c.24 1.296 1.248 1.8 3.696 1.8 2.304 0 3.648-.432 3.648-1.2 0-.912-.864-1.008-2.304-1.128l-3.528-.288C3.336 97.136.6 96.008.6 92.384c0-3.552 3.744-5.424 9.696-5.424 5.64 0 9.48 1.872 9.768 5.88h-6.168c-.144-1.2-1.296-1.776-3.6-1.776-2.136 0-3.336.432-3.336 1.2 0 .84.768 1.104 2.976 1.272l3.576.288c3.552.288 6.816 1.272 6.816 5.136 0 4.296-4.872 5.28-10.032 5.28-6.456 0-9.648-2.184-9.936-5.904zm26.317-6.576h-6V87.2h18.217v4.56h-6V104h-6.216V91.76zM57.358 104H40.22V87.2h17.136v4.32h-10.92v1.992h10.2v4.176h-10.2v1.992h10.92V104zm8.468-2.112L65.127 104h-6.696l6.096-16.8h9.624L80.25 104h-6.697l-.696-2.112h-7.031zm3.36-10.272-1.945 5.952h4.2l-1.968-5.952h-.287zM87.662 87.2v12.24h9.384V104h-15.6V87.2h6.216zm12.022 4.56h-6V87.2h18.216v4.56h-6V104h-6.216V91.76zM130.364 104h-17.136V87.2h17.136v4.32h-10.92v1.992h10.2v4.176h-10.2v1.992h10.92V104zm1.082-8.4c0-5.256 4.368-8.64 10.824-8.64 6.072 0 10.56 3.024 10.848 7.536h-6.456c-.24-1.368-1.656-2.808-4.272-2.808-2.856 0-4.584 1.56-4.584 3.912 0 2.52 1.92 3.912 4.584 3.912 2.616 0 3.768-1.152 4.272-2.808h6.456c-.336 4.536-4.752 7.536-10.848 7.536-6.552 0-10.824-3.456-10.824-8.64zm29.319 8.4h-6.216V87.2h6.216v6.192h7.008V87.2h6.216V104h-6.216v-6.048h-7.008V104zM40.4 119h-1.785v-4.395L36.995 119h-.78l-1.605-4.395V119h-1.8v-7.245h2.31l1.485 4.035 1.5-4.035H40.4V119zm7.189 0h-1.815v-.72c-.2.28-.475.5-.825.66-.34.16-.7.24-1.08.24-.61 0-1.135-.215-1.575-.645-.44-.43-.66-1.015-.66-1.755 0-.75.215-1.33.645-1.74.44-.41.97-.615 1.59-.615.39 0 .755.075 1.095.225.35.15.62.36.81.63v-.945c0-.39-.12-.695-.36-.915-.23-.23-.555-.345-.975-.345-.66 0-1.255.26-1.785.78l-.675-1.23c.73-.7 1.66-1.05 2.79-1.05.85 0 1.53.21 2.04.63.52.41.78 1.055.78 1.935V119zm-3.03-1.035c.56 0 .965-.23 1.215-.69v-.93c-.26-.47-.665-.705-1.215-.705-.34 0-.615.11-.825.33-.2.21-.3.49-.3.84s.1.63.3.84c.21.21.485.315.825.315zm9.323-6.21v1.575h-2.88V119h-1.8v-7.245h4.68zM60.509 119h-1.815v-.72c-.2.28-.475.5-.825.66-.34.16-.7.24-1.08.24-.61 0-1.135-.215-1.575-.645-.44-.43-.66-1.015-.66-1.755 0-.75.215-1.33.645-1.74.44-.41.97-.615 1.59-.615.39 0 .755.075 1.095.225.35.15.62.36.81.63v-.945c0-.39-.12-.695-.36-.915-.23-.23-.555-.345-.975-.345-.66 0-1.255.26-1.785.78l-.675-1.23c.73-.7 1.66-1.05 2.79-1.05.85 0 1.53.21 2.04.63.52.41.78 1.055.78 1.935V119zm-3.03-1.035c.56 0 .965-.23 1.215-.69v-.93c-.26-.47-.665-.705-1.215-.705-.34 0-.615.11-.825.33-.2.21-.3.49-.3.84s.1.63.3.84c.21.21.485.315.825.315zm6.983 1.215c-1.28 0-2.266-.385-2.956-1.155l.855-1.08c.51.53 1.196.795 2.056.795.4 0 .71-.075.93-.225.22-.16.33-.375.33-.645 0-.55-.446-.825-1.336-.825h-1.35v-1.41h1.32c.83 0 1.245-.275 1.245-.825 0-.25-.114-.445-.344-.585-.22-.14-.52-.21-.9-.21-.77 0-1.38.26-1.83.78l-.886-1.065c.69-.77 1.58-1.155 2.67-1.155.96 0 1.715.18 2.265.54.56.35.84.835.84 1.455 0 .41-.164.78-.495 1.11-.32.32-.71.52-1.17.6.48.06.895.245 1.245.555.36.31.54.705.54 1.185 0 .64-.275 1.16-.825 1.56-.55.4-1.284.6-2.204.6zm6.02-.18h-1.74v-7.245h1.8v4.08l2.236-4.08h1.845V119h-1.815v-4.245L70.483 119zm7.56 0h-1.8v-7.245h1.8v2.7h2.266v-2.7h1.815V119h-1.815v-2.97h-2.265V119zm14.415 0h-1.815v-.72c-.2.28-.475.5-.825.66-.34.16-.7.24-1.08.24-.61 0-1.135-.215-1.575-.645-.44-.43-.66-1.015-.66-1.755 0-.75.215-1.33.645-1.74.44-.41.97-.615 1.59-.615.39 0 .755.075 1.095.225.35.15.62.36.81.63v-.945c0-.39-.12-.695-.36-.915-.23-.23-.555-.345-.975-.345-.66 0-1.255.26-1.785.78l-.675-1.23c.73-.7 1.66-1.05 2.79-1.05.85 0 1.53.21 2.04.63.52.41.78 1.055.78 1.935V119zm-3.03-1.035c.56 0 .965-.23 1.215-.69v-.93c-.26-.47-.665-.705-1.215-.705-.34 0-.615.11-.825.33-.2.21-.3.49-.3.84s.1.63.3.84c.21.21.485.315.825.315zM100.25 119h-2.115l-1.5-2.835-.765 1.065V119h-1.8v-7.245h1.8v3.285l2.205-3.285h2.1l-2.295 3.255 2.37 3.99zm7.031 0h-2.115l-1.5-2.835-.765 1.065V119h-1.8v-7.245h1.8v3.285l2.205-3.285h2.1l-2.295 3.255 2.37 3.99zm6.416 0h-1.815v-.72c-.2.28-.475.5-.825.66-.34.16-.7.24-1.08.24-.61 0-1.135-.215-1.575-.645-.44-.43-.66-1.015-.66-1.755 0-.75.215-1.33.645-1.74.44-.41.97-.615 1.59-.615.39 0 .755.075 1.095.225.35.15.62.36.81.63v-.945c0-.39-.12-.695-.36-.915-.23-.23-.555-.345-.975-.345-.66 0-1.255.26-1.785.78l-.675-1.23c.73-.7 1.66-1.05 2.79-1.05.85 0 1.53.21 2.04.63.52.41.78 1.055.78 1.935V119zm-3.03-1.035c.56 0 .965-.23 1.215-.69v-.93c-.26-.47-.665-.705-1.215-.705-.34 0-.615.11-.825.33-.2.21-.3.49-.3.84s.1.63.3.84c.21.21.485.315.825.315zm4.478 3.87.27-1.59c.14.07.295.105.465.105.4 0 .665-.175.795-.525l.24-.69-2.445-7.38h1.92l1.455 5.07 1.47-5.07h1.92l-2.835 8.475c-.21.64-.505 1.08-.885 1.32-.38.25-.88.38-1.5.39-.35 0-.64-.035-.87-.105zm8.674-2.835h-1.8v-7.245h1.8v2.7h2.265v-2.7h1.815V119h-1.815v-2.97h-2.265V119zm8.55 0h-1.815v-5.67h-1.59v-1.575h5.01v1.575h-1.605V119zm5.553.18c-1.02 0-1.82-.365-2.4-1.095-.58-.74-.87-1.645-.87-2.715 0-1.07.29-1.97.87-2.7.58-.73 1.38-1.095 2.4-1.095 1.03 0 1.835.365 2.415 1.095.58.73.87 1.63.87 2.7 0 1.08-.29 1.985-.87 2.715-.58.73-1.385 1.095-2.415 1.095zm0-1.59c.47 0 .825-.21 1.065-.63.24-.42.36-.95.36-1.59 0-.64-.12-1.165-.36-1.575-.24-.42-.595-.63-1.065-.63-.46 0-.81.21-1.05.63-.23.42-.345.945-.345 1.575 0 .64.115 1.17.345 1.59.24.42.59.63 1.05.63zm8.312 1.41h-3.78v-7.245h3.675c.73 0 1.28.175 1.65.525.38.35.57.795.57 1.335 0 .42-.115.775-.345 1.065-.23.28-.53.47-.9.57.41.09.745.3 1.005.63.26.33.39.715.39 1.155 0 .58-.19 1.055-.57 1.425-.38.36-.945.54-1.695.54zm-.42-1.455c.56 0 .84-.25.84-.75 0-.22-.075-.4-.225-.54-.14-.15-.345-.225-.615-.225h-1.56v1.515h1.56zm-.06-2.97c.51 0 .765-.225.765-.675 0-.21-.065-.375-.195-.495-.13-.13-.32-.195-.57-.195h-1.5v1.365h1.5z" fill="#fff"/></svg>